<svg width="13" height="22" viewBox="0 0 13 22" fill="none" xmlns="http://www.w3.org/2000/svg">
<path d="M12.5029 21.5157C12.8212 21.2056 13 20.785 13 20.3464C13 19.9078 12.8212 19.4872 12.5029 19.1771L4.09834 10.99L12.5029 2.80297C12.8122 2.49103 12.9833 2.07324 12.9794 1.63958C12.9756 1.20592 12.797 0.791084 12.4822 0.484429C12.1674 0.177773 11.7415 0.003832 11.2964 6.30772e-05C10.8512 -0.00370585 10.4223 0.163004 10.1021 0.464283L0.497118 9.82067C0.178814 10.1308 1.36523e-07 10.5514 1.31293e-07 10.99C1.26063e-07 11.4286 0.178814 11.8492 0.497118 12.1594L10.1021 21.5157C10.4205 21.8258 10.8523 22 11.3025 22C11.7527 22 12.1845 21.8258 12.5029 21.5157Z" fill="#86B4CE"/>
</svg>
