<svg width="18" height="22" viewBox="0 0 18 22" fill="none" xmlns="http://www.w3.org/2000/svg">
<path d="M17.7893 4.93502C17.6487 4.78795 17.4689 4.71429 17.25 4.71429H13.5C13.4686 3.3717 13.031 2.25868 12.1875 1.375C11.344 0.491317 10.2816 0.0329018 9 0C7.71844 0.0329018 6.65602 0.491317 5.8125 1.375C4.96898 2.25868 4.53141 3.3717 4.5 4.71429H0.75C0.530859 4.71429 0.351094 4.78795 0.210703 4.93502C0.0703126 5.08234 0 5.27067 0 5.5V21.2143C0 21.4439 0.0700783 21.6322 0.210703 21.7793C0.351328 21.9263 0.531094 22 0.75 22H17.25C17.4691 22 17.6489 21.9266 17.7893 21.7793C17.9297 21.6319 18 21.4436 18 21.2143V5.5C18 5.27042 17.9299 5.0821 17.7893 4.93502ZM6.87891 2.49219C7.44891 1.89455 8.15602 1.58763 9 1.57143C9.84352 1.58812 10.5506 1.89504 11.1211 2.49219C11.6916 3.08933 11.9845 3.83011 12 4.71429H6C6.01594 3.8306 6.30891 3.08982 6.87891 2.49219ZM16.5 20.4286H1.5V6.28571H4.5V9.42857H6V6.28571H12V9.42857H13.5V6.28571H16.5V20.4286Z" fill="#F6FCFF"/>
</svg>
