<svg width="40" height="40" viewBox="0 0 40 40" fill="none" xmlns="http://www.w3.org/2000/svg">
<rect x="0.5" y="0.5" width="39" height="39" rx="19.5" fill="#F2FAFF" stroke="#282828"/>
<path d="M28.7893 13.935C28.6487 13.7879 28.4689 13.7143 28.25 13.7143H24.5C24.4686 12.3717 24.031 11.2587 23.1875 10.375C22.344 9.49132 21.2816 9.0329 20 9C18.7184 9.0329 17.656 9.49132 16.8125 10.375C15.969 11.2587 15.5314 12.3717 15.5 13.7143H11.75C11.5309 13.7143 11.3511 13.7879 11.2107 13.935C11.0703 14.0823 11 14.2707 11 14.5V30.2143C11 30.4439 11.0701 30.6322 11.2107 30.7793C11.3513 30.9263 11.5311 31 11.75 31H28.25C28.4691 31 28.6489 30.9266 28.7893 30.7793C28.9297 30.6319 29 30.4436 29 30.2143V14.5C29 14.2704 28.9299 14.0821 28.7893 13.935ZM17.8789 11.4922C18.4489 10.8946 19.156 10.5876 20 10.5714C20.8435 10.5881 21.5506 10.895 22.1211 11.4922C22.6916 12.0893 22.9845 12.8301 23 13.7143H17C17.0159 12.8306 17.3089 12.0898 17.8789 11.4922ZM27.5 29.4286H12.5V15.2857H15.5V18.4286H17V15.2857H23V18.4286H24.5V15.2857H27.5V29.4286Z" fill="#282828"/>
</svg>
