<svg width="18" height="17" viewBox="0 0 18 17" fill="none" xmlns="http://www.w3.org/2000/svg">
<path d="M13.7143 17H5.14286L5.14286 5.95L11.1429 0L12.2143 1.0625C12.3143 1.16167 12.3966 1.29625 12.4611 1.46625C12.5257 1.63625 12.5577 1.79917 12.5571 1.955V2.2525L11.6143 5.95H16.2857C16.7429 5.95 17.1429 6.12 17.4857 6.46C17.8286 6.8 18 7.19667 18 7.65V9.35C18 9.44917 17.9894 9.55542 17.9683 9.66875C17.9471 9.78208 17.9149 9.88833 17.8714 9.9875L15.3 15.98C15.1714 16.2633 14.9571 16.5042 14.6571 16.7025C14.3571 16.9008 14.0429 17 13.7143 17ZM3.42857 5.95L3.42857 17H0L0 5.95H3.42857Z" fill="#D9D9D9"/>
</svg>
