<svg width="13" height="22" viewBox="0 0 13 22" fill="none" xmlns="http://www.w3.org/2000/svg">
<path d="M0.49712 0.484253C0.178815 0.794415 9.00564e-07 1.21503 8.81393e-07 1.6536C8.62223e-07 2.09216 0.178815 2.51278 0.49712 2.82294L8.90166 11.01L0.497119 19.197C0.187835 19.509 0.016698 19.9268 0.0205661 20.3604C0.0244351 20.7941 0.202999 21.2089 0.517801 21.5156C0.832603 21.8222 1.25846 21.9962 1.70364 21.9999C2.14882 22.0037 2.57771 21.837 2.89793 21.5357L12.5029 12.1793C12.8212 11.8692 13 11.4486 13 11.01C13 10.5714 12.8212 10.1508 12.5029 9.84064L2.89793 0.484253C2.57953 0.174186 2.14775 -4.74367e-07 1.69753 -4.94047e-07C1.24731 -5.13727e-07 0.815521 0.174186 0.49712 0.484253Z" fill="#86B4CE"/>
</svg>
